<svg width="1600" height="980" viewBox="0 0 1600 980" fill="none" xmlns="http://www.w3.org/2000/svg">
  <rect width="1600" height="980" fill="#F5F7FA"/>

  <text x="60" y="56" fill="#303133" font-size="28" font-family="Arial, sans-serif" font-weight="700">岗位列表与岗位详情视觉稿</text>
  <text x="60" y="86" fill="#909399" font-size="14" font-family="Arial, sans-serif">基于当前 Element UI 后台风格，列表页沿用简历仓库卡片样式，详情页与投递详情信息密度保持一致</text>

  <rect x="40" y="120" width="730" height="800" rx="18" fill="#FFFFFF" stroke="#E4E7ED"/>
  <text x="70" y="162" fill="#303133" font-size="22" font-family="Arial, sans-serif" font-weight="700">岗位列表页</text>

  <rect x="70" y="186" width="670" height="78" rx="12" fill="#FFFFFF" stroke="#EBEEF5"/>
  <rect x="94" y="210" width="180" height="34" rx="8" fill="#F5F7FA" stroke="#DCDFE6"/>
  <text x="110" y="232" fill="#909399" font-size="13" font-family="Arial, sans-serif">搜索公司名称或岗位名称</text>
  <rect x="292" y="210" width="120" height="34" rx="8" fill="#F5F7FA" stroke="#DCDFE6"/>
  <text x="326" y="232" fill="#606266" font-size="13" font-family="Arial, sans-serif">来源平台</text>
  <rect x="428" y="210" width="120" height="34" rx="8" fill="#F5F7FA" stroke="#DCDFE6"/>
  <text x="462" y="232" fill="#606266" font-size="13" font-family="Arial, sans-serif">岗位状态</text>
  <rect x="564" y="210" width="76" height="34" rx="8" fill="#409EFF"/>
  <text x="589" y="232" fill="#FFFFFF" font-size="13" font-family="Arial, sans-serif">搜索</text>
  <rect x="652" y="210" width="64" height="34" rx="8" fill="#67C23A"/>
  <text x="668" y="232" fill="#FFFFFF" font-size="13" font-family="Arial, sans-serif">新增</text>

  <rect x="70" y="294" width="205" height="228" rx="14" fill="#FFFFFF" stroke="#EBEEF5"/>
  <text x="88" y="326" fill="#303133" font-size="18" font-family="Arial, sans-serif" font-weight="700">腾讯科技</text>
  <rect x="196" y="308" width="60" height="24" rx="12" fill="#F0F9EB"/>
  <text x="209" y="324" fill="#67C23A" font-size="12" font-family="Arial, sans-serif">待投递</text>
  <text x="88" y="360" fill="#606266" font-size="14" font-family="Arial, sans-serif">前端开发工程师</text>
  <text x="88" y="390" fill="#909399" font-size="13" font-family="Arial, sans-serif">深圳 · 25k-35k x 16</text>
  <text x="88" y="420" fill="#909399" font-size="13" font-family="Arial, sans-serif">来源：Boss</text>
  <text x="88" y="454" fill="#606266" font-size="13" font-family="Arial, sans-serif">熟悉 Vue / React，具备工程化与性能优化经验...</text>
  <line x1="88" y1="482" x2="256" y2="482" stroke="#EBEEF5"/>
  <text x="88" y="506" fill="#C0C4CC" font-size="12" font-family="Arial, sans-serif">创建于 2026-04-26</text>
  <text x="190" y="506" fill="#409EFF" font-size="12" font-family="Arial, sans-serif">查看</text>
  <text x="224" y="506" fill="#409EFF" font-size="12" font-family="Arial, sans-serif">原岗位</text>

  <rect x="302" y="294" width="205" height="228" rx="14" fill="#FFFFFF" stroke="#EBEEF5"/>
  <text x="320" y="326" fill="#303133" font-size="18" font-family="Arial, sans-serif" font-weight="700">字节跳动</text>
  <rect x="428" y="308" width="60" height="24" rx="12" fill="#ECF5FF"/>
  <text x="443" y="324" fill="#409EFF" font-size="12" font-family="Arial, sans-serif">已投递</text>
  <text x="320" y="360" fill="#606266" font-size="14" font-family="Arial, sans-serif">资深前端工程师</text>
  <text x="320" y="390" fill="#909399" font-size="13" font-family="Arial, sans-serif">北京 · 30k-45k x 15</text>
  <text x="320" y="420" fill="#909399" font-size="13" font-family="Arial, sans-serif">来源：内推</text>
  <text x="320" y="454" fill="#606266" font-size="13" font-family="Arial, sans-serif">要求扎实 JS 基础，熟悉 React 生态与系统设计...</text>
  <line x1="320" y1="482" x2="488" y2="482" stroke="#EBEEF5"/>
  <text x="320" y="506" fill="#C0C4CC" font-size="12" font-family="Arial, sans-serif">创建于 2026-04-24</text>
  <text x="422" y="506" fill="#409EFF" font-size="12" font-family="Arial, sans-serif">查看</text>
  <text x="456" y="506" fill="#409EFF" font-size="12" font-family="Arial, sans-serif">原岗位</text>

  <rect x="534" y="294" width="205" height="228" rx="14" fill="#FFFFFF" stroke="#EBEEF5"/>
  <text x="552" y="326" fill="#303133" font-size="18" font-family="Arial, sans-serif" font-weight="700">某创业公司</text>
  <rect x="660" y="308" width="60" height="24" rx="12" fill="#FEF0F0"/>
  <text x="677" y="324" fill="#F56C6C" font-size="12" font-family="Arial, sans-serif">已关闭</text>
  <text x="552" y="360" fill="#606266" font-size="14" font-family="Arial, sans-serif">全栈工程师</text>
  <text x="552" y="390" fill="#909399" font-size="13" font-family="Arial, sans-serif">上海 · 20k-28k x 14</text>
  <text x="552" y="420" fill="#909399" font-size="13" font-family="Arial, sans-serif">来源：官网</text>
  <text x="552" y="454" fill="#606266" font-size="13" font-family="Arial, sans-serif">强调业务交付能力，Node.js + Vue + MySQL...</text>
  <line x1="552" y1="482" x2="720" y2="482" stroke="#EBEEF5"/>
  <text x="552" y="506" fill="#C0C4CC" font-size="12" font-family="Arial, sans-serif">创建于 2026-04-20</text>
  <text x="654" y="506" fill="#409EFF" font-size="12" font-family="Arial, sans-serif">查看</text>
  <text x="688" y="506" fill="#409EFF" font-size="12" font-family="Arial, sans-serif">原岗位</text>

  <rect x="70" y="552" width="670" height="120" rx="14" fill="#F9FAFC" stroke="#EBEEF5"/>
  <text x="94" y="584" fill="#303133" font-size="16" font-family="Arial, sans-serif" font-weight="700">新增岗位方式</text>
  <rect x="94" y="602" width="186" height="42" rx="10" fill="#FFFFFF" stroke="#DCDFE6"/>
  <text x="134" y="628" fill="#606266" font-size="14" font-family="Arial, sans-serif">手动录入岗位信息</text>
  <rect x="300" y="602" width="296" height="42" rx="10" fill="#FFFFFF" stroke="#DCDFE6"/>
  <text x="320" y="628" fill="#909399" font-size="14" font-family="Arial, sans-serif">输入岗位链接，点击“解析并导入”</text>
  <rect x="612" y="602" width="104" height="42" rx="10" fill="#409EFF"/>
  <text x="633" y="628" fill="#FFFFFF" font-size="14" font-family="Arial, sans-serif">解析导入</text>

  <text x="70" y="720" fill="#909399" font-size="13" font-family="Arial, sans-serif">分页：共 38 条  ‹ 1 2 3 4 ›</text>

  <rect x="810" y="120" width="750" height="800" rx="18" fill="#FFFFFF" stroke="#E4E7ED"/>
  <text x="840" y="162" fill="#303133" font-size="22" font-family="Arial, sans-serif" font-weight="700">岗位详情页</text>

  <text x="840" y="214" fill="#303133" font-size="28" font-family="Arial, sans-serif" font-weight="700">腾讯科技 / 前端开发工程师</text>
  <rect x="1286" y="190" width="72" height="28" rx="14" fill="#F0F9EB"/>
  <text x="1304" y="209" fill="#67C23A" font-size="12" font-family="Arial, sans-serif">待投递</text>
  <text x="840" y="248" fill="#909399" font-size="14" font-family="Arial, sans-serif">深圳 · 25k-35k x 16 · 来源：Boss</text>

  <rect x="1388" y="188" width="120" height="36" rx="10" fill="#409EFF"/>
  <text x="1416" y="211" fill="#FFFFFF" font-size="14" font-family="Arial, sans-serif">查看原岗位</text>

  <rect x="840" y="282" width="690" height="250" rx="14" fill="#FFFFFF" stroke="#EBEEF5"/>
  <text x="864" y="316" fill="#303133" font-size="17" font-family="Arial, sans-serif" font-weight="700">岗位基础信息与操作</text>
  <text x="864" y="354" fill="#606266" font-size="14" font-family="Arial, sans-serif">公司介绍：互联网科技公司，业务覆盖社交、内容、游戏与云服务。</text>
  <text x="864" y="388" fill="#606266" font-size="14" font-family="Arial, sans-serif">岗位要求：熟悉 Vue / React，具备工程化、性能优化和中大型项目经验。</text>
  <text x="864" y="422" fill="#606266" font-size="14" font-family="Arial, sans-serif">来源链接：https://www.zhipin.com/job_detail/xxx</text>
  <text x="864" y="456" fill="#606266" font-size="14" font-family="Arial, sans-serif">备注：优先级高，建议使用大厂定制版简历投递。</text>
  <rect x="864" y="476" width="116" height="38" rx="10" fill="#67C23A"/>
  <text x="888" y="500" fill="#FFFFFF" font-size="14" font-family="Arial, sans-serif">创建投递记录</text>
  <rect x="994" y="476" width="88" height="38" rx="10" fill="#409EFF"/>
  <text x="1022" y="500" fill="#FFFFFF" font-size="14" font-family="Arial, sans-serif">编辑岗位</text>
  <rect x="1096" y="476" width="108" height="38" rx="10" fill="#ECF5FF" stroke="#B3D8FF"/>
  <text x="1122" y="500" fill="#409EFF" font-size="14" font-family="Arial, sans-serif">查看原岗位</text>

  <rect x="840" y="560" width="690" height="316" rx="14" fill="#FFFFFF" stroke="#EBEEF5"/>
  <text x="864" y="594" fill="#303133" font-size="17" font-family="Arial, sans-serif" font-weight="700">关联投递记录</text>
  <text x="864" y="626" fill="#909399" font-size="13" font-family="Arial, sans-serif">后续投递可直接选择该岗位，自动带出岗位字段，并仅补充简历版本、投递时间和状态</text>

  <rect x="864" y="646" width="642" height="46" rx="8" fill="#F5F7FA"/>
  <text x="882" y="674" fill="#606266" font-size="13" font-family="Arial, sans-serif">大厂定制版</text>
  <text x="1042" y="674" fill="#606266" font-size="13" font-family="Arial, sans-serif">2026-04-10</text>
  <text x="1168" y="674" fill="#67C23A" font-size="13" font-family="Arial, sans-serif">HR 面</text>
  <text x="1256" y="674" fill="#409EFF" font-size="13" font-family="Arial, sans-serif">查看投递</text>

  <rect x="864" y="704" width="642" height="46" rx="8" fill="#F5F7FA"/>
  <text x="882" y="732" fill="#606266" font-size="13" font-family="Arial, sans-serif">新版优化版</text>
  <text x="1042" y="732" fill="#606266" font-size="13" font-family="Arial, sans-serif">2026-05-02</text>
  <text x="1168" y="732" fill="#409EFF" font-size="13" font-family="Arial, sans-serif">已投递</text>
  <text x="1256" y="732" fill="#409EFF" font-size="13" font-family="Arial, sans-serif">查看投递</text>
</svg>
